<svg width="75" height="75" viewBox="0 0 75 75" fill="none" xmlns="http://www.w3.org/2000/svg">
<circle cx="37.5" cy="37.5" r="37.5" fill="#0012B4"/>
<circle cx="37" cy="38" r="32" fill="url(#paint0_linear_105:6)"/>
<path d="M36.656 26.296C40.04 26.296 42.536 26.92 44.144 28.168C45.776 29.416 46.592 31.312 46.592 33.856C46.592 35.104 46.352 36.172 45.872 37.06C45.416 37.948 44.816 38.692 44.072 39.292C43.328 39.868 42.524 40.336 41.66 40.696L49.04 52H43.856L37.7 41.848H33.956V52H29.348V26.296H36.656ZM36.368 30.148H33.956V38.068H36.512C38.408 38.068 39.776 37.732 40.616 37.06C41.48 36.364 41.912 35.344 41.912 34C41.912 32.608 41.456 31.624 40.544 31.048C39.656 30.448 38.264 30.148 36.368 30.148Z" fill="#0012B4"/>
<defs>
<linearGradient id="paint0_linear_105:6" x1="28" y1="14" x2="57" y2="60" gradientUnits="userSpaceOnUse">
<stop stop-color="#53FF37"/>
<stop offset="1" stop-color="#39C023"/>
</linearGradient>
</defs>
</svg>
